<svg width="25" height="18" viewBox="0 0 25 18" fill="none" xmlns="http://www.w3.org/2000/svg">
<path d="M24.5261 3.77331L17.4545 0.115447C16.8799 -0.181611 16 0.106659 16 0.841395V8.15536C16 8.81451 16.8177 9.21176 17.4545 8.8813L24.5261 5.2252C25.157 4.90002 25.159 4.09849 24.5261 3.77331V3.77331Z" fill="#DEDEDE"/>
<rect x="5" y="2.42297" width="13.8904" height="4.15385" rx="2.07692" fill="#DEDEDE"/>
<path d="M0.473869 14.2267L7.5455 17.8846C8.12006 18.1816 9 17.8933 9 17.1586L9 9.84464C9 9.18549 8.18234 8.78824 7.54549 9.1187L0.473869 12.7748C-0.156952 13.1 -0.158961 13.9015 0.473869 14.2267V14.2267Z" fill="#DEDEDE"/>
<rect x="20" y="15.577" width="13.8904" height="4.15385" rx="2.07692" transform="rotate(180 20 15.577)" fill="#DEDEDE"/>
</svg>
